HIERARCHY
ROOT ui
{
	 OFFSET 0 0 0
	 CHANNELS 3 XPosition YPosition Z Position
	 EndSite
	 {
	 OFFSET 0 -1 0
	 }
}
ROOT li
{
	 OFFSET 0 0 0
	 CHANNELS 3 XPosition YPosition Z Position
	 EndSite
	 {
	 OFFSET 0 -1 0
	 }
}
ROOT ul
{
	 OFFSET 0 0 0
	 CHANNELS 3 XPosition YPosition Z Position
	 EndSite
	 {
	 OFFSET 0 -1 0
	 }
}
ROOT ll
{
	 OFFSET 0 0 0
	 CHANNELS 3 XPosition YPosition Z Position
	 EndSite
	 {
	 OFFSET 0 -1 0
	 }
}
ROOT tt
{
	 OFFSET 0 0 0
	 CHANNELS 3 XPosition YPosition Z Position
	 EndSite
	 {
	 OFFSET 0 -1 0
	 }
}
ROOT tb
{
	 OFFSET 0 0 0
	 CHANNELS 3 XPosition YPosition Z Position
	 EndSite
	 {
	 OFFSET 0 -1 0
	 }
}
ROOT td
{
	 OFFSET 0 0 0
	 CHANNELS 3 XPosition YPosition Z Position
	 EndSite
	 {
	 OFFSET 0 -1 0
	 }
}
ROOT v
{
	 OFFSET 0 0 0
	 CHANNELS 3 XPosition YPosition Z Position
	 EndSite
	 {
	 OFFSET 0 -1 0
	 }
}
ROOT bn
{
	 OFFSET 0 0 0
	 CHANNELS 3 XPosition YPosition Z Position
	 EndSite
	 {
	 OFFSET 0 -1 0
	 }
}
MOTION
Frames: 19
Frame Time: 0.002
-0.025551671981811522	-3.514510095119476E-4	0		0.6608526000976562	-2.772073486328125	0		-0.8453233642578125	0.23553482055664063	0		-3.048059940338135E-4	-3.30574658203125	0		1.993962646484375	-1.4138177490234376	0		3.371305419921875	-0.5520098876953125	0		4.586427734375	-0.02465897560119629	0		5.888142578125	0.2991334228515625	0		-0.33709469604492187	5.87791259765625	0		
-0.02565802192687988	-2.8119099140167236E-4	0		0.6107481689453125	-2.764538818359375	0		-0.8755477905273438	0.22291468811035156	0		0.03552554702758789	-3.304023681640625	0		2.0275311279296875	-1.444123046875	0		3.3880498046875	-0.566185791015625	0		4.59617578125	-0.03979719924926758	0		5.8773251953125	0.2888742370605469	0		-0.3711230163574219	5.871318359375	0		
0.054293952941894534	0.0010181610584259033	0		0.6676246948242187	-2.76403271484375	0		-0.839607666015625	0.22265953063964844	0		-0.01846097183227539	-3.2874326171875	0		2.050479736328125	-1.4393231201171874	0		3.4516123046875	-0.603812744140625	0		4.61088818359375	-0.06298088073730469	0		5.87236865234375	0.3096269836425781	0		-0.35395849609375	5.88023388671875	0		
-0.022703575134277343	0.002835129976272583	0		0.6665291137695313	-2.7659658203125	0		-0.8576801147460937	0.2159269561767578	0		0.04237978744506836	-3.29494921875	0		2.091133056640625	-1.4706939697265624	0		3.44161669921875	-0.6007247314453125	0		4.6407197265625	-0.07930660247802734	0		5.88008056640625	0.278189697265625	0		-0.3207736511230469	5.88599560546875	0		
0.05130365753173828	-0.0018074610233306885	0		0.6624766845703125	-2.769867431640625	0		-0.7897550659179687	0.20236209106445313	0		-0.02744877052307129	-3.274197509765625	0		2.0950419921875	-1.4817054443359374	0		3.459234375	-0.6439014282226563	0		4.64349560546875	-0.10736586761474609	0		5.869375	0.2679578857421875	0		-0.320589599609375	5.88607763671875	0		
-0.02556941032409668	1.6083000227808954E-5	0		0.6625296020507813	-2.769805908203125	0		-0.7927633056640625	0.18948518371582032	0		0.03656084442138672	-3.277742919921875	0		2.100015869140625	-1.4927235107421875	0		3.480245361328125	-0.6531051025390625	0		4.6595283203125	-0.11554691314697266	0		5.8580009765625	0.25775592041015627	0		-0.33544345092773437	5.87630712890625	0		
0.0515953483581543	-0.0016567089557647705	0		0.6465918579101563	-2.775586669921875	0		-0.8626558227539063	0.18226133728027344	0		-0.06719822692871094	-3.263654052734375	0		2.118073974609375	-1.5018656005859374	0		3.513155029296875	-0.6794215698242188	0		4.6704111328125	-0.145673583984375	0		5.85812646484375	0.257676025390625	0		-0.35409222412109376	5.881576171875	0		
-0.022122325897216796	0.003142474889755249	0		0.6409029541015625	-2.7624638671875	0		-0.862412353515625	0.1823565216064453	0		-0.008909796714782715	-3.252141845703125	0		2.13415576171875	-1.514986083984375	0		3.51841015625	-0.6764635009765625	0		4.68962744140625	-0.1478753204345703	0		5.85538037109375	0.2421045379638672	0		-0.3878006896972656	5.8749931640625	0		
0.052130008697509764	-0.0015025169849395752	0		0.6391253051757813	-2.764378173828125	0		-0.8702700805664062	0.16653056335449218	0		-0.07643927001953126	-3.22739892578125	0		2.134421630859375	-1.51494873046875	0		3.549279541015625	-0.7187539672851563	0		4.6967041015625	-0.1699544677734375	0		5.8428486328125	0.2665688781738281	0		-0.3333856201171875	5.87555078125	0		
-0.024516441345214843	3.30049991607666E-4	0		0.6633654174804687	-2.7695458984375	0		-0.8690152587890625	0.15761564636230468	0		-0.04013949203491211	-3.225671875	0		2.148586669921875	-1.530044921875	0		3.5935751953125	-0.7221703491210938	0		4.723814453125	-0.19322390747070312	0		5.842412109375	0.2751895446777344	0		-0.33392977905273435	5.8766455078125	0		
-0.002184385061264038	-0.0038065199851989744	0		0.6278117065429687	-2.757125	0		-0.8817476196289062	0.14683699035644532	0		-0.0647110595703125	-3.214347412109375	0		2.162776123046875	-1.54613818359375	0		3.563770263671875	-0.7388553466796876	0		4.72910498046875	-0.20127162170410157	0		5.836138671875	0.24590367126464843	0		-0.33247039794921873	5.8757197265625	0		
-0.02375226593017578	4.885419905185699E-4	0		0.66606298828125	-2.767428466796875	0		-0.86945263671875	0.13681126403808594	0		-0.056278160095214844	-3.2053466796875	0		2.126176513671875	-1.5427271728515626	0		3.5769833984375	-0.75595556640625	0		4.7411982421875	-0.23137841796875	0		5.83279443359375	0.23213835144042969	0		-0.35094265747070313	5.880990234375	0		
-0.020321889877319334	0.003538330078125	0		0.6195499267578125	-2.7548955078125	0		-0.8941373291015625	0.12814784240722657	0		-0.08663993072509765	-3.176962890625	0		2.191387939453125	-1.560313720703125	0		3.599167236328125	-0.7771365356445312	0		4.7554873046875	-0.24249562072753905	0		5.82887744140625	0.2512809753417969	0		-0.33439041137695313	5.888916015625	0		
-0.019917522430419922	0.0036181490421295166	0		0.6698455200195312	-2.763314453125	0		-0.8708511352539062	0.11601028442382813	0		-0.07105117797851562	-3.15503125	0		2.148709716796875	-1.566831787109375	0		3.61958251953125	-0.7752900390625	0		4.76182958984375	-0.24852227783203126	0		5.82555615234375	0.24102403259277344	0		-0.33392733764648436	5.8889990234375	0		
-0.02254006576538086	7.276999950408936E-4	0		0.617274658203125	-2.758717041015625	0		-0.87852197265625	0.10817546844482422	0		-0.10947754669189454	-3.1355673828125	0		2.18304443359375	-1.5731025390625	0		3.596728515625	-0.8010081176757813	0		4.77409619140625	-0.26259429931640627	0		5.818615234375	0.21704176330566408	0		-0.328636474609375	5.8730322265625	0		
-0.026165397644042968	-0.0031537699699401857	0		0.66759619140625	-2.767133544921875	0		-0.880314697265625	0.08727851867675782	0		-0.13093695068359376	-3.121271728515625	0		2.1834521484375	-1.573032470703125	0		3.632038818359375	-0.81128857421875	0		4.7733115234375	-0.28252377319335936	0		5.801037109375	0.20718507385253906	0		-0.3281990051269531	5.8731123046875	0		
-0.021694923400878908	8.83342981338501E-4	0		0.6191268310546875	-2.75657421875	0		-0.9039710693359375	0.07859307098388672	0		-0.13230030822753908	-3.10017626953125	0		2.18388232421875	-1.57295703125	0		3.63938037109375	-0.8202826538085938	0		4.77865380859375	-0.291498779296875	0		5.80847705078125	0.20714117431640625	0		-0.36181198120117186	5.868525390625	0		
0.05575478363037109	-8.0246102809906E-4	0		0.6755859985351562	-2.758051025390625	0		-0.8725489501953125	0.07435845947265625	0		-0.11666046905517578	-3.083251708984375	0		2.15244091796875	-1.563561279296875	0		3.62988623046875	-0.8160991821289062	0		4.78709765625	-0.29348910522460936	0		5.80098388671875	0.2126771697998047	0		-0.34626882934570313	5.87844921875	0		
-0.017691062927246093	0.003997113943099976	0		0.6142578125	-2.74336572265625	0		-0.870127197265625	0.06540288543701171	0		-0.14074171447753905	-3.04393798828125	0		2.18690234375	-1.5698109130859375	0		3.65910595703125	-0.8462877807617187	0		4.78947265625	-0.3074040832519531	0		5.79423779296875	0.218229736328125	0		-0.3117421264648437	5.88418115234375	0		
